<svg width="414" height="413" viewBox="0 0 414 413" fill="none" xmlns="http://www.w3.org/2000/svg">
<path d="M38.8125 106.477H375.188C382.333 106.477 388.125 100.699 388.125 93.5703V61.3047C388.125 54.1764 382.333 48.3984 375.188 48.3984H38.8125C31.667 48.3984 25.875 54.1764 25.875 61.3047V93.5703C25.875 100.699 31.667 106.477 38.8125 106.477ZM38.8125 235.539H375.188C382.333 235.539 388.125 229.761 388.125 222.633V190.367C388.125 183.239 382.333 177.461 375.188 177.461H38.8125C31.667 177.461 25.875 183.239 25.875 190.367V222.633C25.875 229.761 31.667 235.539 38.8125 235.539ZM38.8125 364.602H375.188C382.333 364.602 388.125 358.824 388.125 351.695V319.43C388.125 312.301 382.333 306.523 375.188 306.523H38.8125C31.667 306.523 25.875 312.301 25.875 319.43V351.695C25.875 358.824 31.667 364.602 38.8125 364.602Z" fill="#FFB426"/>
</svg>
